<?xml version="1.0"?>
<svg width="32" height="32" xmlns="http://www.w3.org/2000/svg" xmlns:svg="http://www.w3.org/2000/svg">
 <style type="text/css">.st0{fill:#FFFFFF;}</style>
 <g class="layer">
  <title>Layer 1</title>
  <g id="_x36__6_">
   <g id="svg_1">
    <path class="st0" d="m24,18l0,-8c0,-5.5 -4.5,-10 -10,-10s-10,4.5 -10,10l0,8l-4,8l9.1,0c0.5,2.3 2.5,4 4.9,4s4.4,-1.7 4.9,-4l9.1,0l-4,-8zm-10,10c-1.3,0 -2.4,-0.8 -2.8,-2l5.6,0c-0.4,1.2 -1.5,2 -2.8,2zm-11,-4l3,-6l0,-8c0,-4.4 3.6,-8 8,-8s8,3.6 8,8l0,8l3,6l-22,0z" fill="black" id="svg_2"/>
   </g>
  </g>
  <ellipse cx="25.4" cy="5.9" fill="#7fff00" id="svg_4" rx="4" ry="4"/>
 </g>
</svg>